<mxfile host="app.diagrams.net" modified="2020-12-03T06:02:35.580Z" agent="5.0 (Windows NT 10.0; Win64; x64) AppleWebKit/537.36 (KHTML, like Gecko) Chrome/87.0.4280.66 Safari/537.36" etag="eOpNUSwo7ib0oMMXLpVC" version="13.10.6" type="github">
  <diagram name="Page-1" id="6133507b-19e7-1e82-6fc7-422aa6c4b21f">
    <mxGraphModel dx="782" dy="475" grid="1" gridSize="10" guides="1" tooltips="1" connect="1" arrows="1" fold="1" page="1" pageScale="1" pageWidth="1100" pageHeight="850" background="#114B5F" math="0" shadow="0">
      <root>
        <mxCell id="0" />
        <mxCell id="1" parent="0" />
        <mxCell id="OppdNpjfiHLxCAykpiA_-1" value="loan" style="swimlane;fontStyle=1;align=center;verticalAlign=middle;childLayout=stackLayout;horizontal=1;startSize=20;horizontalStack=0;resizeParent=1;resizeParentMax=0;resizeLast=0;collapsible=0;marginBottom=0;html=1;rounded=0;fillColor=#F45B69;strokeColor=#028090;fontColor=#E4FDE1;" vertex="1" parent="1">
          <mxGeometry x="330" y="175" width="140" height="70" as="geometry" />
        </mxCell>
        <mxCell id="OppdNpjfiHLxCAykpiA_-4" value="duedate&lt;br&gt;bookname&lt;br&gt;videoname&lt;br&gt;" style="text;html=1;align=center;verticalAlign=middle;resizable=0;points=[];autosize=1;fontColor=#E4FDE1;" vertex="1" parent="OppdNpjfiHLxCAykpiA_-1">
          <mxGeometry y="20" width="140" height="50" as="geometry" />
        </mxCell>
        <mxCell id="OppdNpjfiHLxCAykpiA_-5" style="edgeStyle=orthogonalEdgeStyle;rounded=0;orthogonalLoop=1;jettySize=auto;html=1;strokeColor=#028090;fontColor=#E4FDE1;labelBackgroundColor=#114B5F;" edge="1" parent="1" source="OppdNpjfiHLxCAykpiA_-4" target="OppdNpjfiHLxCAykpiA_-18">
          <mxGeometry relative="1" as="geometry">
            <mxPoint x="400" y="260" as="targetPoint" />
          </mxGeometry>
        </mxCell>
        <mxCell id="OppdNpjfiHLxCAykpiA_-23" style="edgeStyle=orthogonalEdgeStyle;rounded=0;orthogonalLoop=1;jettySize=auto;html=1;exitX=0.5;exitY=1;exitDx=0;exitDy=0;dashed=1;strokeColor=#028090;fontColor=#E4FDE1;labelBackgroundColor=#114B5F;" edge="1" parent="1" source="OppdNpjfiHLxCAykpiA_-7" target="OppdNpjfiHLxCAykpiA_-10">
          <mxGeometry relative="1" as="geometry" />
        </mxCell>
        <mxCell id="OppdNpjfiHLxCAykpiA_-7" value="systems" style="swimlane;fontStyle=1;align=center;verticalAlign=middle;childLayout=stackLayout;horizontal=1;startSize=29;horizontalStack=0;resizeParent=1;resizeParentMax=0;resizeLast=0;collapsible=0;marginBottom=0;html=1;rounded=0;fillColor=#F45B69;strokeColor=#028090;fontColor=#E4FDE1;" vertex="1" parent="1">
          <mxGeometry x="200" y="80" width="140" height="54" as="geometry" />
        </mxCell>
        <mxCell id="OppdNpjfiHLxCAykpiA_-10" value="library card" style="swimlane;fontStyle=1;align=center;verticalAlign=middle;childLayout=stackLayout;horizontal=1;startSize=29;horizontalStack=0;resizeParent=1;resizeParentMax=0;resizeLast=0;collapsible=0;marginBottom=0;html=1;rounded=0;fillColor=#F45B69;strokeColor=#028090;fontColor=#E4FDE1;" vertex="1" parent="1">
          <mxGeometry x="70" y="220" width="140" height="54" as="geometry" />
        </mxCell>
        <mxCell id="OppdNpjfiHLxCAykpiA_-12" value="stereotype property 1" style="text;html=1;strokeColor=none;fillColor=none;align=left;verticalAlign=middle;spacingLeft=4;spacingRight=4;overflow=hidden;rotatable=0;points=[[0,0.5],[1,0.5]];portConstraint=eastwest;fontColor=#E4FDE1;" vertex="1" parent="OppdNpjfiHLxCAykpiA_-10">
          <mxGeometry y="29" width="140" height="25" as="geometry" />
        </mxCell>
        <mxCell id="OppdNpjfiHLxCAykpiA_-13" value="1. identify conceptual class&lt;br&gt;2.draw them uml classes(with out operation)&lt;br&gt;3.add attributes&lt;br&gt;4.add association" style="text;html=1;align=center;verticalAlign=middle;resizable=0;points=[];autosize=1;fontColor=#E4FDE1;" vertex="1" parent="1">
          <mxGeometry x="590" y="10" width="250" height="60" as="geometry" />
        </mxCell>
        <mxCell id="OppdNpjfiHLxCAykpiA_-18" value="clerk" style="swimlane;fontStyle=0;childLayout=stackLayout;horizontal=1;startSize=25;fillColor=none;horizontalStack=0;resizeParent=1;resizeParentMax=0;resizeLast=0;collapsible=1;marginBottom=0;rounded=0;strokeColor=#028090;fontColor=#E4FDE1;" vertex="1" parent="1">
          <mxGeometry x="420" y="330" width="140" height="51" as="geometry" />
        </mxCell>
        <mxCell id="OppdNpjfiHLxCAykpiA_-20" value="name&#xa;" style="text;strokeColor=none;fillColor=none;align=left;verticalAlign=top;spacingLeft=4;spacingRight=4;overflow=hidden;rotatable=0;points=[[0,0.5],[1,0.5]];portConstraint=eastwest;fontColor=#E4FDE1;" vertex="1" parent="OppdNpjfiHLxCAykpiA_-18">
          <mxGeometry y="25" width="140" height="26" as="geometry" />
        </mxCell>
        <mxCell id="OppdNpjfiHLxCAykpiA_-24" value="" style="shape=table;html=1;whiteSpace=wrap;startSize=0;container=1;collapsible=0;childLayout=tableLayout;fillColor=#ffe6cc;strokeColor=#d79b00;fontStyle=0;align=center;" vertex="1" parent="1">
          <mxGeometry x="610" y="120" width="120" height="190" as="geometry" />
        </mxCell>
        <mxCell id="OppdNpjfiHLxCAykpiA_-25" value="" style="shape=partialRectangle;html=1;whiteSpace=wrap;collapsible=0;dropTarget=0;pointerEvents=0;fillColor=none;top=0;left=0;bottom=0;right=0;points=[[0,0.5],[1,0.5]];portConstraint=eastwest;" vertex="1" parent="OppdNpjfiHLxCAykpiA_-24">
          <mxGeometry width="120" height="30" as="geometry" />
        </mxCell>
        <mxCell id="OppdNpjfiHLxCAykpiA_-26" value="12" style="shape=partialRectangle;html=1;whiteSpace=wrap;connectable=0;overflow=hidden;fillColor=none;top=0;left=0;bottom=0;right=0;" vertex="1" parent="OppdNpjfiHLxCAykpiA_-25">
          <mxGeometry width="60" height="30" as="geometry" />
        </mxCell>
        <mxCell id="OppdNpjfiHLxCAykpiA_-27" value="21" style="shape=partialRectangle;html=1;whiteSpace=wrap;connectable=0;overflow=hidden;fillColor=none;top=0;left=0;bottom=0;right=0;" vertex="1" parent="OppdNpjfiHLxCAykpiA_-25">
          <mxGeometry x="60" width="60" height="30" as="geometry" />
        </mxCell>
        <mxCell id="OppdNpjfiHLxCAykpiA_-28" value="" style="shape=partialRectangle;html=1;whiteSpace=wrap;collapsible=0;dropTarget=0;pointerEvents=0;fillColor=none;top=0;left=0;bottom=0;right=0;points=[[0,0.5],[1,0.5]];portConstraint=eastwest;" vertex="1" parent="OppdNpjfiHLxCAykpiA_-24">
          <mxGeometry y="30" width="120" height="40" as="geometry" />
        </mxCell>
        <mxCell id="OppdNpjfiHLxCAykpiA_-29" value="67" style="shape=partialRectangle;html=1;whiteSpace=wrap;connectable=0;overflow=hidden;fillColor=none;top=0;left=0;bottom=0;right=0;" vertex="1" parent="OppdNpjfiHLxCAykpiA_-28">
          <mxGeometry width="60" height="40" as="geometry" />
        </mxCell>
        <mxCell id="OppdNpjfiHLxCAykpiA_-30" value="76" style="shape=partialRectangle;html=1;whiteSpace=wrap;connectable=0;overflow=hidden;fillColor=none;top=0;left=0;bottom=0;right=0;" vertex="1" parent="OppdNpjfiHLxCAykpiA_-28">
          <mxGeometry x="60" width="60" height="40" as="geometry" />
        </mxCell>
        <mxCell id="OppdNpjfiHLxCAykpiA_-31" value="" style="shape=partialRectangle;html=1;whiteSpace=wrap;collapsible=0;dropTarget=0;pointerEvents=0;fillColor=none;top=0;left=0;bottom=0;right=0;points=[[0,0.5],[1,0.5]];portConstraint=eastwest;" vertex="1" parent="OppdNpjfiHLxCAykpiA_-24">
          <mxGeometry y="70" width="120" height="40" as="geometry" />
        </mxCell>
        <mxCell id="OppdNpjfiHLxCAykpiA_-32" value="99" style="shape=partialRectangle;html=1;whiteSpace=wrap;connectable=0;overflow=hidden;fillColor=none;top=0;left=0;bottom=0;right=0;" vertex="1" parent="OppdNpjfiHLxCAykpiA_-31">
          <mxGeometry width="60" height="40" as="geometry" />
        </mxCell>
        <mxCell id="OppdNpjfiHLxCAykpiA_-33" value="90" style="shape=partialRectangle;html=1;whiteSpace=wrap;connectable=0;overflow=hidden;fillColor=none;top=0;left=0;bottom=0;right=0;" vertex="1" parent="OppdNpjfiHLxCAykpiA_-31">
          <mxGeometry x="60" width="60" height="40" as="geometry" />
        </mxCell>
        <mxCell id="OppdNpjfiHLxCAykpiA_-34" value="" style="shape=partialRectangle;html=1;whiteSpace=wrap;collapsible=0;dropTarget=0;pointerEvents=0;fillColor=none;top=0;left=0;bottom=0;right=0;points=[[0,0.5],[1,0.5]];portConstraint=eastwest;" vertex="1" parent="OppdNpjfiHLxCAykpiA_-24">
          <mxGeometry y="110" width="120" height="40" as="geometry" />
        </mxCell>
        <mxCell id="OppdNpjfiHLxCAykpiA_-35" value="01" style="shape=partialRectangle;html=1;whiteSpace=wrap;connectable=0;overflow=hidden;fillColor=none;top=0;left=0;bottom=0;right=0;" vertex="1" parent="OppdNpjfiHLxCAykpiA_-34">
          <mxGeometry width="60" height="40" as="geometry" />
        </mxCell>
        <mxCell id="OppdNpjfiHLxCAykpiA_-36" value="0101" style="shape=partialRectangle;html=1;whiteSpace=wrap;connectable=0;overflow=hidden;fillColor=none;top=0;left=0;bottom=0;right=0;" vertex="1" parent="OppdNpjfiHLxCAykpiA_-34">
          <mxGeometry x="60" width="60" height="40" as="geometry" />
        </mxCell>
        <mxCell id="OppdNpjfiHLxCAykpiA_-37" value="" style="shape=partialRectangle;html=1;whiteSpace=wrap;collapsible=0;dropTarget=0;pointerEvents=0;fillColor=none;top=0;left=0;bottom=0;right=0;points=[[0,0.5],[1,0.5]];portConstraint=eastwest;" vertex="1" parent="OppdNpjfiHLxCAykpiA_-24">
          <mxGeometry y="150" width="120" height="40" as="geometry" />
        </mxCell>
        <mxCell id="OppdNpjfiHLxCAykpiA_-38" value="767" style="shape=partialRectangle;html=1;whiteSpace=wrap;connectable=0;overflow=hidden;fillColor=none;top=0;left=0;bottom=0;right=0;" vertex="1" parent="OppdNpjfiHLxCAykpiA_-37">
          <mxGeometry width="60" height="40" as="geometry" />
        </mxCell>
        <mxCell id="OppdNpjfiHLxCAykpiA_-39" value="909" style="shape=partialRectangle;html=1;whiteSpace=wrap;connectable=0;overflow=hidden;fillColor=none;top=0;left=0;bottom=0;right=0;" vertex="1" parent="OppdNpjfiHLxCAykpiA_-37">
          <mxGeometry x="60" width="60" height="40" as="geometry" />
        </mxCell>
        <mxCell id="OppdNpjfiHLxCAykpiA_-41" style="edgeStyle=orthogonalEdgeStyle;curved=0;rounded=1;sketch=0;orthogonalLoop=1;jettySize=auto;html=1;entryX=-0.014;entryY=0.064;entryDx=0;entryDy=0;entryPerimeter=0;strokeColor=#028090;fillColor=#F45B69;fontColor=#E4FDE1;" edge="1" parent="1" source="OppdNpjfiHLxCAykpiA_-40" target="OppdNpjfiHLxCAykpiA_-20">
          <mxGeometry relative="1" as="geometry" />
        </mxCell>
        <mxCell id="OppdNpjfiHLxCAykpiA_-42" style="edgeStyle=orthogonalEdgeStyle;curved=0;rounded=1;sketch=0;orthogonalLoop=1;jettySize=auto;html=1;exitX=0.75;exitY=0.1;exitDx=0;exitDy=0;exitPerimeter=0;strokeColor=#028090;fillColor=#F45B69;fontColor=#E4FDE1;entryX=0;entryY=0.5;entryDx=0;entryDy=0;" edge="1" parent="1" source="OppdNpjfiHLxCAykpiA_-40" target="OppdNpjfiHLxCAykpiA_-12">
          <mxGeometry relative="1" as="geometry">
            <mxPoint x="260" y="430" as="targetPoint" />
            <Array as="points">
              <mxPoint x="250" y="296" />
              <mxPoint x="250" y="330" />
              <mxPoint x="210" y="330" />
              <mxPoint x="210" y="352" />
            </Array>
          </mxGeometry>
        </mxCell>
        <mxCell id="OppdNpjfiHLxCAykpiA_-40" value="Actor" style="shape=umlActor;verticalLabelPosition=bottom;verticalAlign=top;html=1;rounded=0;sketch=0;strokeColor=#028090;fillColor=#F45B69;fontColor=#E4FDE1;align=center;" vertex="1" parent="1">
          <mxGeometry x="270" y="300" width="70" height="50" as="geometry" />
        </mxCell>
      </root>
    </mxGraphModel>
  </diagram>
</mxfile>
